<svg xmlns="http://www.w3.org/2000/svg" viewBox="0 0 900 650.435"><defs><style>.a{fill:#fff;}.b{fill:#3d7ec1;}.c{fill:#185a9c;}.d{fill:#2e75ba;}</style></defs><title>Marca Empaqplast</title><polygon class="a" points="25.826 524.14 68.775 524.14 68.775 543 3.277 543 3.277 448.006 67.168 448.006 67.168 466.595 25.826 466.595 25.826 485.87 63.673 485.87 63.673 504.189 25.826 504.189 25.826 524.14"/><polygon class="a" points="162.737 448.005 183.273 448.005 183.273 543.008 160.317 543.008 160.317 484.515 138.581 515.187 128.249 515.187 106.504 484.515 106.504 543.008 83.684 543.008 83.684 448.005 104.084 448.005 133.343 488.315 162.737 448.005"/><path class="a" d="M334.659,1802.4c9.79,0,15.569-5.424,15.569-14.52,0-9.231-5.779-14.519-15.569-14.519H322.306V1802.4Zm2.412-48.856c22.684,0,36.374,13.031,36.374,34.065,0,20.629-13.69,34.065-36.374,34.065H322.712v26.873H299.621v-95Z" transform="translate(-97.279 -1305.537)"/><path class="a" d="M418.414,1777.29l-14.223,38.947h28.184Zm24.428,71.252-5.635-15.476H399.224l-5.508,15.476H369.559l36.375-95h24.7l35.969,95Z" transform="translate(-97.279 -1305.537)"/><path class="a" d="M517.886,1829c15.569,0,26.568-11.533,26.568-27.956s-11-27.965-26.568-27.965c-15.442,0-26.441,11.542-26.441,27.965s11,27.956,26.441,27.956m36.637,6.65,13.022,18.59-19.2,13.436-13.42-19.952a57.405,57.405,0,0,1-17.041,2.581c-28.861,0-50.065-20.764-50.065-49.261s21.2-49.27,50.065-49.27c29.124,0,50.057,20.772,50.057,49.27,0,13.842-4.967,25.917-13.42,34.606" transform="translate(-97.279 -1305.537)"/><path class="a" d="M617.616,1802.4c9.8,0,15.577-5.424,15.577-14.52,0-9.231-5.779-14.519-15.577-14.519H605.271V1802.4Zm2.42-48.856c22.685,0,36.375,13.031,36.375,34.065,0,20.629-13.69,34.065-36.375,34.065H605.677v26.873h-23.09v-95Z" transform="translate(-97.279 -1305.537)"/><polygon class="a" points="594.44 521.427 634.166 521.427 634.166 543.004 571.358 543.004 571.358 448.01 594.44 448.01 594.44 521.427"/><path class="a" d="M785.81,1777.29l-14.223,38.947h28.184Zm24.428,71.252-5.635-15.476H766.62l-5.508,15.476H736.955l36.375-95h24.7l35.969,95Z" transform="translate(-97.279 -1305.537)"/><path class="a" d="M837.232,1837.005l9.933-16.829c9.257,6.515,18.522,9.637,28.717,9.637,9.4,0,14.765-2.987,14.765-8.275,0-5.026-4.966-8.148-19.054-12.083-20.671-5.567-30.469-14.384-30.469-29.859,0-16.009,12.751-27.279,34.488-27.279a59.725,59.725,0,0,1,35.841,11.676l-10.068,16.288a43.135,43.135,0,0,0-24.961-8.419c-7.649,0-12.489,2.851-12.489,7.463s3.892,7.471,17.853,11.541c21.881,6.109,32.077,15.332,32.077,30.536,0,16.965-14.9,28.363-37.441,28.363-14.494,0-28.591-4.612-39.192-12.76" transform="translate(-97.279 -1305.537)"/><polygon class="a" points="896.725 448.005 896.725 469.446 869.344 469.446 869.344 543.008 846.262 543.008 846.262 469.446 819.017 469.446 819.017 448.005 896.725 448.005"/><path class="b" d="M126.994,1921.469q-3.756-5.584-11.109-5.584t-11.11,5.584q-3.388,4.76-3.384,12.574t3.308,12.573q3.833,5.571,11.186,5.576t11.109-5.576q3.314-4.773,3.309-12.573,0-7.743-3.309-12.574m5.593,31.763H130.3v-8.554q-3.745,9.519-14.418,9.519-8.466,0-12.878-5.948-3.974-5.356-3.969-14.206,0-8.784,3.969-14.139,4.492-6.105,12.878-6.1,10.889,0,14.418,9.3v-23.285h2.284Z" transform="translate(-97.279 -1305.537)"/><path class="b" d="M115.885,1917.66c-4.323,0-7.488,1.574-9.662,4.806-2.048,2.885-3.08,6.769-3.08,11.575s1.007,8.7,3,11.549c2.225,3.249,5.415,4.823,9.747,4.823s7.489-1.565,9.663-4.8c2-2.877,3-6.769,3-11.575,0-4.772-1.007-8.665-2.995-11.567l-.009-.008c-2.174-3.232-5.339-4.806-9.663-4.806m0,38.312c-6.193,0-11-2.242-14.282-6.659-2.868-3.867-4.324-9.011-4.324-15.272,0-6.219,1.456-11.338,4.324-15.2,3.325-4.518,8.131-6.811,14.282-6.811,5.441,0,9.68,1.624,12.667,4.822v-18.809h5.787v56.97h-5.787v-4.062c-3.029,3.342-7.268,5.026-12.667,5.026" transform="translate(-97.279 -1305.537)"/><path class="b" d="M152.669,1946.609q3.832,5.585,11.186,5.584t11.109-5.584q3.314-4.76,3.309-12.573,0-7.729-3.309-12.574-3.756-5.571-11.109-5.576t-11.11,5.576q-3.389,4.76-3.384,12.574t3.308,12.573m11.186,7.59q-8.313,0-12.878-5.948-3.974-5.433-3.969-14.215,0-8.847,3.969-14.207,4.416-6.029,12.878-6.024,10.66,0,14.418,9.663v-8.851h2.284v38.617h-2.284V1944.9q-3.681,9.3-14.418,9.3" transform="translate(-97.279 -1305.537)"/><path class="b" d="M163.855,1917.66c-4.324,0-7.488,1.574-9.655,4.806-2.056,2.885-3.088,6.769-3.088,11.575s1.007,8.7,3,11.549l.009.009c2.217,3.24,5.407,4.814,9.739,4.814s7.488-1.565,9.662-4.8c2-2.877,3-6.769,3-11.575,0-4.772-1.007-8.665-2.995-11.567-2.183-3.24-5.348-4.814-9.671-4.814m0,38.312c-6.092,0-10.89-2.234-14.266-6.642-2.885-3.943-4.341-9.079-4.341-15.289,0-6.27,1.456-11.406,4.324-15.281,3.275-4.459,8.081-6.735,14.283-6.735,5.4,0,9.637,1.717,12.666,5.1v-4.282h5.788v42.163h-5.788v-3.926c-3.012,3.249-7.251,4.89-12.666,4.89" transform="translate(-97.279 -1305.537)"/><path class="b" d="M196.667,1914.62h2.353v6.32a12.567,12.567,0,0,1,11.921-7.141q9.266,0,11.33,7.886,3.972-7.882,12.438-7.886,12.057,0,12.066,13.842v25.587h-2.361v-23.209q0-6.473-1.1-9.079-2.056-4.988-8.681-4.983-6.842,0-9.637,5.059-2.133,3.948-2.133,11.381v20.831h-2.284v-23.209q0-6.473-1.1-9.079-2.069-4.988-8.681-4.983-9.786,0-11.406,9.823c-.1.745-.186,1.675-.262,2.784-.068,1.125-.11,2.394-.11,3.833v20.831h-2.353Z" transform="translate(-97.279 -1305.537)"/><path class="b" d="M248.527,1955.006h-5.864V1930.02c0-5.051-.524-7.344-.964-8.377-.694-1.692-2.175-3.909-7.065-3.909-3.918,0-6.566,1.354-8.106,4.155-1.269,2.335-1.912,5.872-1.912,10.508v22.609h-5.788V1930.02c0-5.051-.525-7.344-.964-8.377-.694-1.692-2.183-3.909-7.074-3.909-5.661,0-8.732,2.649-9.671,8.335-.085.66-.169,1.548-.237,2.614-.068,1.083-.1,2.327-.1,3.714v22.609h-5.863v-42.162h5.863v2.859a14.393,14.393,0,0,1,10.162-3.672c6.448,0,9.858,2.7,11.651,5.805a14.424,14.424,0,0,1,12.108-5.805c6.312,0,13.826,2.708,13.826,15.611Z" transform="translate(-97.279 -1305.537)"/><path class="b" d="M266.489,1946.615q3.819,5.572,11.109,5.576a12.836,12.836,0,0,0,11.186-5.576q3.312-4.772,3.308-12.573,0-7.743-3.308-12.574a12.824,12.824,0,0,0-11.186-5.584q-7.361,0-11.109,5.584-3.314,4.822-3.309,12.574,0,7.8,3.309,12.573M264.8,1919.9q4.417-6.1,12.8-6.1t12.878,6.1q3.974,5.356,3.969,14.139t-3.969,14.206q-4.569,5.952-12.878,5.948-8.39,0-12.8-5.948-3.972-5.432-3.976-14.206T264.8,1919.9" transform="translate(-97.279 -1305.537)"/><path class="b" d="M277.6,1917.66c-4.324,0-7.488,1.574-9.663,4.806-2,2.91-3,6.8-3,11.575,0,4.806,1.006,8.7,2.986,11.549l.009.009c2.225,3.24,5.381,4.814,9.671,4.814s7.48-1.582,9.747-4.823c1.989-2.851,3-6.743,3-11.549,0-4.772-1.016-8.665-3-11.567-2.259-3.24-5.449-4.814-9.739-4.814m0,38.312c-6.151,0-10.932-2.242-14.206-6.659-2.869-3.926-4.324-9.062-4.324-15.272s1.455-11.33,4.315-15.2c3.283-4.526,8.064-6.819,14.215-6.819s10.957,2.293,14.283,6.819c2.868,3.859,4.323,8.978,4.323,15.2s-1.455,11.346-4.323,15.255c-3.393,4.442-8.191,6.676-14.283,6.676" transform="translate(-97.279 -1305.537)"/><path class="b" d="M321.742,1952.04a13.53,13.53,0,0,0,7.649-2,7.541,7.541,0,0,0,3.6-6.769q0-5.357-7.572-7.446c-.153-.042-.381-.118-.7-.22a11.775,11.775,0,0,0-1.286-.3q-9.341-2.463-12.065-4.62a8.082,8.082,0,0,1-3.089-6.693,8.768,8.768,0,0,1,4.265-7.809,15.867,15.867,0,0,1,8.825-2.378,13.353,13.353,0,0,1,8.757,2.826,12.057,12.057,0,0,1,4.121,8.258h-2.276q-1.18-9.01-10.89-9a12.822,12.822,0,0,0-6.921,1.785,6.743,6.743,0,0,0-3.452,6.024q0,5.813,11.693,8.783a1.442,1.442,0,0,0,.736.22q6.029,1.562,8.385,3.2a8.41,8.41,0,0,1,3.9,7.438,9.6,9.6,0,0,1-4.341,8.266,16.286,16.286,0,0,1-9.265,2.6,15.762,15.762,0,0,1-10.009-3.046,12.828,12.828,0,0,1-4.561-9.375h2.285q1.827,10.267,12.209,10.263" transform="translate(-97.279 -1305.537)"/><path class="b" d="M321.816,1955.972a17.551,17.551,0,0,1-11.085-3.418,14.62,14.62,0,0,1-5.229-10.627l-.169-1.929h5.661l.262,1.463c1.075,6.008,4.408,8.808,10.484,8.808a11.986,11.986,0,0,0,6.692-1.717,5.757,5.757,0,0,0,2.81-5.289c0-.99,0-4-6.279-5.728l-.524-.169a8.9,8.9,0,0,0-1.32-.313c-6.659-1.752-10.814-3.368-12.836-4.967a9.818,9.818,0,0,1-3.757-8.089,10.52,10.52,0,0,1,5.077-9.316,17.706,17.706,0,0,1,9.773-2.656,15.115,15.115,0,0,1,9.857,3.223,13.889,13.889,0,0,1,4.764,9.434l.22,1.98h-5.788l-.194-1.548c-.669-5.085-3.579-7.454-9.155-7.454a11.155,11.155,0,0,0-6,1.523,4.974,4.974,0,0,0-2.623,4.51c0,3.655,5.643,5.855,10.373,7.065l.745.22c4.264,1.108,7.192,2.234,8.943,3.46a10.11,10.11,0,0,1,4.662,8.9,11.327,11.327,0,0,1-5.093,9.713,18.092,18.092,0,0,1-10.272,2.919" transform="translate(-97.279 -1305.537)"/><path class="b" d="M374.494,1902.119q1.395-2.677,6.033-2.682l6.768-.068v2.006H380.89q-3.452,0-4.56,2.233a15.464,15.464,0,0,0-.66,5.509v5.5h7.5v2.158h-7.5v36.459h-2.285v-44.04q0-5.064,1.109-7.074" transform="translate(-97.279 -1305.537)"/><path class="b" d="M377.425,1955.006h-5.787v-45.818c0-3.7.423-6.286,1.311-7.911,1.261-2.394,3.808-3.613,7.573-3.613l8.529-.084v5.575H380.9c-2.378,0-2.827.906-3,1.244a14.163,14.163,0,0,0-.474,4.713v3.732h7.506v5.711h-7.506Z" transform="translate(-97.279 -1305.537)"/><path class="b" d="M400.172,1946.615q3.82,5.572,11.109,5.576a12.836,12.836,0,0,0,11.186-5.576q3.312-4.772,3.308-12.573,0-7.743-3.308-12.574a12.824,12.824,0,0,0-11.186-5.584q-7.36,0-11.109,5.584-3.313,4.822-3.309,12.574,0,7.8,3.309,12.573M398.48,1919.9q4.416-6.1,12.8-6.1t12.878,6.1q3.974,5.356,3.969,14.139t-3.969,14.206q-4.569,5.952-12.878,5.948-8.388,0-12.8-5.948-3.974-5.432-3.977-14.206t3.977-14.139" transform="translate(-97.279 -1305.537)"/><path class="b" d="M411.281,1917.66c-4.323,0-7.488,1.574-9.654,4.806-2,2.91-3.012,6.8-3.012,11.575,0,4.806,1.007,8.7,2.987,11.549l.008.009c2.226,3.24,5.382,4.814,9.671,4.814s7.48-1.582,9.748-4.823c1.988-2.851,3-6.743,3-11.549,0-4.772-1.015-8.665-3-11.567-2.259-3.24-5.449-4.814-9.739-4.814m0,38.312c-6.151,0-10.932-2.242-14.206-6.659-2.868-3.926-4.324-9.062-4.324-15.272s1.456-11.33,4.324-15.2c3.274-4.526,8.055-6.819,14.206-6.819s10.958,2.293,14.283,6.819c2.868,3.859,4.324,8.978,4.324,15.2s-1.456,11.346-4.324,15.255c-3.393,4.442-8.191,6.676-14.283,6.676" transform="translate(-97.279 -1305.537)"/><path class="b" d="M442.328,1914.62h2.352v6.4q2.944-6.32,12.658-6.244l-1.472,2.081a11.845,11.845,0,0,0-3.9.449,11.622,11.622,0,0,0-5.153,3.79,9.688,9.688,0,0,0-2.133,6.473v25.663h-2.352Z" transform="translate(-97.279 -1305.537)"/><path class="b" d="M446.439,1955.006h-5.864v-42.162h5.864v3.164c2.614-2.039,6.185-3.037,10.915-3.012l3.376.025-3.96,5.6h-.906a9.958,9.958,0,0,0-3.274.338,10.1,10.1,0,0,0-4.459,3.3,7.9,7.9,0,0,0-1.692,5.305Z" transform="translate(-97.279 -1305.537)"/><path class="b" d="M467.565,1914.62h2.352v6.32a12.567,12.567,0,0,1,11.922-7.141q9.264,0,11.329,7.886,3.974-7.882,12.438-7.886,12.058,0,12.066,13.842v25.587h-2.361v-23.209q0-6.473-1.1-9.079-2.055-4.988-8.681-4.983-6.84,0-9.637,5.059-2.133,3.948-2.132,11.381v20.831h-2.285v-23.209q0-6.473-1.1-9.079-2.068-4.988-8.681-4.983-9.786,0-11.406,9.823c-.1.745-.186,1.675-.262,2.784-.068,1.125-.11,2.394-.11,3.833v20.831h-2.352Z" transform="translate(-97.279 -1305.537)"/><path class="b" d="M519.424,1955.006H513.56V1930.02c0-5.051-.525-7.344-.965-8.377-.694-1.692-2.174-3.909-7.065-3.909-3.917,0-6.566,1.354-8.106,4.155-1.269,2.335-1.912,5.872-1.912,10.508v22.609h-5.787V1930.02c0-5.051-.525-7.344-.965-8.377-.694-1.692-2.183-3.909-7.074-3.909-5.66,0-8.732,2.649-9.671,8.335-.084.66-.16,1.548-.237,2.614-.067,1.083-.1,2.327-.1,3.714v22.609h-5.864v-42.162h5.864v2.859a14.391,14.391,0,0,1,10.162-3.672c6.447,0,9.866,2.7,11.651,5.805a14.428,14.428,0,0,1,12.116-5.805c6.3,0,13.818,2.708,13.818,15.611Z" transform="translate(-97.279 -1305.537)"/><path class="b" d="M537.531,1946.609q3.833,5.585,11.185,5.584t11.11-5.584q3.312-4.76,3.308-12.573,0-7.729-3.308-12.574-3.757-5.571-11.11-5.576t-11.109,5.576q-3.389,4.76-3.385,12.574t3.309,12.573m11.185,7.59q-8.313,0-12.878-5.948-3.972-5.433-3.968-14.215,0-8.847,3.968-14.207,4.418-6.029,12.878-6.024,10.662,0,14.418,9.663v-8.851h2.285v38.617h-2.285V1944.9q-3.681,9.3-14.418,9.3" transform="translate(-97.279 -1305.537)"/><path class="b" d="M548.716,1917.66c-4.323,0-7.488,1.574-9.662,4.806-2.048,2.885-3.08,6.769-3.08,11.575s1.007,8.7,3,11.549l.008.009c2.217,3.24,5.407,4.814,9.739,4.814s7.488-1.565,9.663-4.8c2-2.877,3-6.769,3-11.575,0-4.772-1.007-8.665-3-11.567-2.184-3.24-5.348-4.814-9.672-4.814m0,38.312c-6.092,0-10.889-2.234-14.265-6.642-2.886-3.943-4.341-9.079-4.341-15.289,0-6.27,1.455-11.406,4.324-15.281,3.274-4.459,8.08-6.735,14.282-6.735,5.4,0,9.638,1.717,12.667,5.1v-4.282h5.787v42.163h-5.787v-3.926c-3.012,3.249-7.251,4.89-12.667,4.89" transform="translate(-97.279 -1305.537)"/><path class="b" d="M610.515,1946.609q3.833,5.585,11.185,5.584t11.11-5.584q3.312-4.76,3.308-12.573,0-7.729-3.308-12.574-3.757-5.571-11.11-5.576t-11.109,5.576q-3.389,4.76-3.385,12.574t3.309,12.573m11.185,7.59q-8.313,0-12.878-5.948-3.972-5.433-3.968-14.215,0-8.847,3.968-14.207,4.418-6.029,12.878-6.024,10.662,0,14.418,9.663v-8.851H638.4v38.617h-2.285V1944.9q-3.68,9.3-14.418,9.3" transform="translate(-97.279 -1305.537)"/><path class="b" d="M621.7,1917.66c-4.323,0-7.488,1.574-9.662,4.806-2.048,2.885-3.08,6.769-3.08,11.575s1.007,8.7,3,11.549l.009.009c2.216,3.24,5.406,4.814,9.738,4.814s7.489-1.565,9.663-4.8c2-2.877,3-6.769,3-11.575,0-4.772-1.007-8.665-3-11.567-2.183-3.24-5.348-4.814-9.672-4.814m0,38.312c-6.092,0-10.889-2.234-14.265-6.642-2.886-3.943-4.341-9.079-4.341-15.289,0-6.27,1.455-11.406,4.324-15.281,3.274-4.459,8.08-6.735,14.282-6.735,5.4,0,9.638,1.717,12.667,5.1v-4.282h5.787v42.163h-5.787v-3.926c-3.012,3.249-7.251,4.89-12.667,4.89" transform="translate(-97.279 -1305.537)"/><polygon class="b" points="582.986 598.519 582.986 609.087 590.635 609.087 590.635 611.168 582.986 611.168 582.986 647.695 580.633 647.695 580.633 598.519 582.986 598.519"/><polygon class="b" points="584.74 649.469 578.876 649.469 578.876 596.747 584.74 596.747 584.74 607.307 592.389 607.307 592.389 612.942 584.74 612.942 584.74 649.469"/><path class="b" d="M727.278,1953.232H725v-6.024q-3.618,6.993-12.878,6.989-13.1,0-13.1-13.758v-25.815h2.284V1939.7q0,6.245,2.276,9.079,2.5,3.338,8.462,3.342,10.813,0,12.582-9.824c.1-.736.186-1.667.262-2.784s.11-2.445.11-3.985v-20.9h2.276Z" transform="translate(-97.279 -1305.537)"/><path class="b" d="M712.122,1955.972c-9.713,0-14.849-5.373-14.849-15.535v-27.592h5.787v26.848c0,3.723.635,6.4,1.887,7.953q2.031,2.7,7.1,2.7c6.38,0,9.832-2.657,10.856-8.369.084-.626.169-1.523.237-2.589.067-1.083.1-2.369.1-3.867v-22.676h5.8v42.163h-5.8v-2.683c-2.758,2.42-6.481,3.647-11.118,3.647" transform="translate(-97.279 -1305.537)"/><path class="b" d="M756.487,1952.04a13.53,13.53,0,0,0,7.649-2,7.541,7.541,0,0,0,3.6-6.769q0-5.357-7.572-7.446c-.153-.042-.381-.118-.7-.22a11.775,11.775,0,0,0-1.286-.3q-9.34-2.463-12.066-4.62a8.081,8.081,0,0,1-3.088-6.693,8.768,8.768,0,0,1,4.265-7.809,15.867,15.867,0,0,1,8.825-2.378,13.355,13.355,0,0,1,8.757,2.826,12.061,12.061,0,0,1,4.121,8.258h-2.276q-1.181-9.01-10.89-9a12.822,12.822,0,0,0-6.921,1.785,6.743,6.743,0,0,0-3.452,6.024q0,5.813,11.693,8.783a1.438,1.438,0,0,0,.736.22q6.029,1.562,8.385,3.2a8.41,8.41,0,0,1,3.9,7.438,9.6,9.6,0,0,1-4.341,8.266,16.286,16.286,0,0,1-9.265,2.6,15.767,15.767,0,0,1-10.01-3.046,12.83,12.83,0,0,1-4.56-9.375h2.284q1.828,10.267,12.21,10.263" transform="translate(-97.279 -1305.537)"/><path class="b" d="M756.561,1955.972a17.551,17.551,0,0,1-11.085-3.418,14.62,14.62,0,0,1-5.229-10.627l-.169-1.929h5.661l.262,1.463c1.075,6.008,4.408,8.808,10.483,8.808a11.987,11.987,0,0,0,6.693-1.717,5.758,5.758,0,0,0,2.809-5.289c0-.99,0-4-6.278-5.728l-.524-.169a8.9,8.9,0,0,0-1.32-.313c-6.659-1.752-10.814-3.368-12.836-4.967a9.818,9.818,0,0,1-3.757-8.089,10.52,10.52,0,0,1,5.077-9.316,17.7,17.7,0,0,1,9.773-2.656,15.119,15.119,0,0,1,9.857,3.223,13.893,13.893,0,0,1,4.764,9.434l.22,1.98h-5.788l-.195-1.548c-.668-5.085-3.579-7.454-9.155-7.454a11.16,11.16,0,0,0-6,1.523,4.975,4.975,0,0,0-2.623,4.51c0,3.655,5.644,5.855,10.374,7.065l.744.22c4.265,1.108,7.193,2.234,8.944,3.46a10.112,10.112,0,0,1,4.662,8.9,11.328,11.328,0,0,1-5.094,9.713,18.087,18.087,0,0,1-10.271,2.919" transform="translate(-97.279 -1305.537)"/><path class="b" d="M809.9,1914.622h2.284v38.609H809.9Zm1.1-15.475c1.083,0,1.616,1.167,1.616,3.494,0,2.378-.533,3.571-1.616,3.571-1.033,0-1.54-1.193-1.54-3.571,0-2.327.507-3.494,1.54-3.494" transform="translate(-97.279 -1305.537)"/><path class="b" d="M810.591,1904.635m.415,3.35c-1.506,0-3.3-.922-3.3-5.339,0-4.586,2.065-5.271,3.3-5.271,1.252,0,3.368.685,3.368,5.271,0,4.645-2.116,5.339-3.368,5.339M813.934,1955h-5.788v-42.162h5.788Z" transform="translate(-97.279 -1305.537)"/><path class="b" d="M854.705,1921.469q-3.758-5.584-11.11-5.584t-11.109,5.584q-3.389,4.76-3.385,12.574t3.309,12.573q3.833,5.571,11.185,5.576t11.11-5.576q3.312-4.773,3.308-12.573,0-7.743-3.308-12.574m5.593,31.763h-2.285v-8.554q-3.744,9.519-14.418,9.519-8.465,0-12.878-5.948-3.972-5.356-3.968-14.206,0-8.784,3.968-14.139,4.492-6.105,12.878-6.1,10.89,0,14.418,9.3v-23.285H860.3Z" transform="translate(-97.279 -1305.537)"/><path class="b" d="M843.6,1917.66c-4.324,0-7.488,1.574-9.654,4.806-2.056,2.885-3.089,6.769-3.089,11.575s1.007,8.7,3,11.549c2.225,3.249,5.415,4.823,9.747,4.823s7.488-1.565,9.663-4.8c2-2.877,3-6.769,3-11.575,0-4.772-1.006-8.665-3-11.567l-.008-.008c-2.175-3.232-5.339-4.806-9.663-4.806m0,38.312c-6.194,0-11-2.242-14.283-6.659-2.868-3.867-4.323-9.011-4.323-15.272,0-6.219,1.455-11.338,4.323-15.2,3.326-4.518,8.132-6.811,14.283-6.811,5.44,0,9.68,1.624,12.666,4.822v-18.809h5.788v56.97h-5.788v-4.062c-3.029,3.342-7.268,5.026-12.666,5.026" transform="translate(-97.279 -1305.537)"/><path class="b" d="M904.22,1932.03a18.629,18.629,0,0,0-3.164-11.16,11.459,11.459,0,0,0-9.934-4.984,12.4,12.4,0,0,0-10.373,4.832A20.482,20.482,0,0,0,877,1932.03ZM890.682,1954.2q-8.162,0-12.438-6.1-3.744-5.431-3.748-14.062t3.748-13.987q4.277-6.245,12.438-6.244,8.02,0,12.218,5.576,3.821,4.987,3.825,13.394v1.413h-29.8v.592a20.348,20.348,0,0,0,3.308,11.9,11.962,11.962,0,0,0,10.45,5.508q9.265,0,12.582-8.782l1.912,1.04a14.675,14.675,0,0,1-4.637,6.473,15.36,15.36,0,0,1-9.857,3.275" transform="translate(-97.279 -1305.537)"/><path class="b" d="M878.929,1930.259H902.4a15.872,15.872,0,0,0-2.767-8.343,9.726,9.726,0,0,0-8.512-4.256,10.675,10.675,0,0,0-8.994,4.154,17.8,17.8,0,0,0-3.2,8.445m11.753,25.713c-6.024,0-10.686-2.3-13.868-6.845-2.7-3.926-4.07-8.994-4.07-15.086,0-6.109,1.371-11.161,4.07-15.011,3.165-4.645,7.835-7,13.868-7,5.9,0,10.475,2.115,13.614,6.278,2.767,3.621,4.18,8.495,4.18,14.469v3.189H878.7a18.07,18.07,0,0,0,2.97,9.7,10.213,10.213,0,0,0,9.011,4.755c5.424,0,9-2.5,10.94-7.632l.711-1.895,5.026,2.741-.541,1.456a16.508,16.508,0,0,1-5.187,7.234,17.145,17.145,0,0,1-10.949,3.655" transform="translate(-97.279 -1305.537)"/><path class="b" d="M924.746,1946.609q3.833,5.585,11.186,5.584t11.109-5.584q3.313-4.76,3.309-12.573,0-7.729-3.309-12.574-3.756-5.571-11.109-5.576t-11.11,5.576q-3.389,4.76-3.384,12.574t3.308,12.573m11.186,7.59q-8.313,0-12.878-5.948-3.972-5.433-3.968-14.215,0-8.847,3.968-14.207,4.416-6.029,12.878-6.024,10.66,0,14.418,9.663v-8.851h2.284v38.617H950.35V1944.9q-3.681,9.3-14.418,9.3" transform="translate(-97.279 -1305.537)"/><path class="b" d="M935.932,1917.66c-4.324,0-7.488,1.574-9.663,4.806-2.047,2.885-3.08,6.769-3.08,11.575s1.007,8.7,3,11.549l.008.009c2.217,3.24,5.407,4.814,9.739,4.814s7.488-1.565,9.663-4.8c2-2.877,3-6.769,3-11.575,0-4.772-1.007-8.665-3-11.567-2.183-3.24-5.348-4.814-9.671-4.814m0,38.312c-6.092,0-10.89-2.234-14.266-6.642-2.885-3.943-4.34-9.079-4.34-15.289,0-6.27,1.455-11.406,4.323-15.281,3.275-4.459,8.081-6.735,14.283-6.735,5.4,0,9.637,1.717,12.666,5.1v-4.282h5.788v42.163H948.6v-3.926c-3.012,3.249-7.251,4.89-12.666,4.89" transform="translate(-97.279 -1305.537)"/><path class="b" d="M981.84,1952.04a13.53,13.53,0,0,0,7.649-2,7.541,7.541,0,0,0,3.6-6.769q0-5.357-7.572-7.446c-.153-.042-.381-.118-.7-.22a11.775,11.775,0,0,0-1.286-.3q-9.341-2.463-12.066-4.62a8.081,8.081,0,0,1-3.088-6.693,8.768,8.768,0,0,1,4.265-7.809,15.867,15.867,0,0,1,8.825-2.378,13.355,13.355,0,0,1,8.757,2.826,12.061,12.061,0,0,1,4.121,8.258H992.07q-1.181-9.01-10.89-9a12.822,12.822,0,0,0-6.921,1.785,6.744,6.744,0,0,0-3.453,6.024q0,5.813,11.694,8.783a1.438,1.438,0,0,0,.736.22q6.029,1.562,8.394,3.2a8.422,8.422,0,0,1,3.892,7.438,9.6,9.6,0,0,1-4.341,8.266,16.286,16.286,0,0,1-9.265,2.6,15.767,15.767,0,0,1-10.01-3.046,12.83,12.83,0,0,1-4.56-9.375h2.284q1.829,10.267,12.21,10.263" transform="translate(-97.279 -1305.537)"/><path class="b" d="M981.914,1955.972a17.551,17.551,0,0,1-11.085-3.418,14.62,14.62,0,0,1-5.229-10.627l-.169-1.929h5.661l.262,1.463c1.075,6.008,4.408,8.808,10.483,8.808a11.987,11.987,0,0,0,6.693-1.717,5.758,5.758,0,0,0,2.809-5.289c0-.99,0-4-6.278-5.728l-.524-.169a8.9,8.9,0,0,0-1.32-.313c-6.659-1.752-10.814-3.368-12.836-4.967a9.818,9.818,0,0,1-3.757-8.089,10.52,10.52,0,0,1,5.077-9.316,17.7,17.7,0,0,1,9.773-2.656,15.117,15.117,0,0,1,9.857,3.223,13.889,13.889,0,0,1,4.764,9.434l.211,1.98h-5.779l-.194-1.548c-.669-5.085-3.58-7.454-9.156-7.454a11.16,11.16,0,0,0-6,1.523,4.975,4.975,0,0,0-2.622,4.51c0,3.655,5.643,5.855,10.373,7.065l.745.22c4.264,1.108,7.183,2.234,8.943,3.46a10.112,10.112,0,0,1,4.662,8.9,11.325,11.325,0,0,1-5.094,9.713,18.087,18.087,0,0,1-10.271,2.919" transform="translate(-97.279 -1305.537)"/><path class="c" d="M636.167,1352.238c-.152,19.427-6.185,36.519-14.511,51.072a83.936,83.936,0,0,0-66.4-20.569c-46.334,5.939-79.231,48.88-73.359,95.679a85.715,85.715,0,0,0,16.973,41.52c-.11-.136-.271-.263-.389-.4,0,0-31.6-30.325-37.67-89.063-2.792-27.051,2.471-60.616,14.012-99.14,20.7-14.757,44.092-21.069,70.905-24.5a158.115,158.115,0,0,1,81.262,10.957c9.18,21.289,9.18,34.446,9.18,34.446" transform="translate(-97.279 -1305.537)"/><path class="c" d="M601.122,1626.56c-3.122.406-6.211.8-9.24,1.1l-.194.025a227.352,227.352,0,0,1-55.261-.677c-38.7-5.474-65.76-21.593-84.485-39.937,12.362-2.6,24.859-9.045,36.019-13.8q26.805-11.448,53.069-24.335c13.64,4.417,28.531,4.57,45.09-1.083a257.864,257.864,0,0,0,47.349-21.728c23.666-13.758,61.454-18.513,68.815,16.1,1.709,8.038.491,16.981-4.856,25.993-19.038,32.152-60.4,53.5-96.306,58.34" transform="translate(-97.279 -1305.537)"/><path class="b" d="M541.027,1548.934q-26.235,12.845-53.069,24.334c-11.152,4.755-23.658,11.211-36.02,13.8-32.9-32.187-40.25-71.151-40.25-71.151-.228-1.015-.465-2.031-.685-3.038q-2.691-12.26-4.019-23.564c-.152-1.218-.262-2.445-.415-3.664-.507-5.2-.837-10.306-.981-15.222-.034-1.04-.009-2.022-.034-3.012-.017-1.675-.025-3.351.051-4.992,1.15-91.356,66.945-129.812,69.221-131.09-.347,1.227-.728,2.462-1.049,3.689-19.393,67.538-9.536,117.07,3.021,147.708,9.984,24.394,21.677,36.815,21.677,36.815.11.127.288.262.4.4,12.912,13.606,26.746,24.014,42.154,28.989" transform="translate(-97.279 -1305.537)"/><path class="d" d="M655.6,1480.333c-14.816,14.308-33.371,25.561-52.434,36.146q-30.626,16.995-62.14,32.457-26.234,12.845-53.06,24.335c-11.16,4.755-23.658,11.2-36.019,13.8a54.965,54.965,0,0,1-6.634,1.007,35.6,35.6,0,0,1-9.637-.558c-14.215-2.767-28.024-13.471-36.24-24.318-5.356-7.082-8.816-16.076-7.649-24.918,1.582-11.838,9.443-19.58,19.216-25.4,10.771-6.422,23.877-10.526,33.54-15.171q16.029-7.716,32.254-14.976,10.953-4.9,21.982-9.579,15.942-6.8,32.068-13.148c19.8-7.776,39.937-15.154,57.943-26.535,31.027-19.6,44.21-45.4,44.506-81.82,0,0,.11-13.538-6.295-33.853.364.144.719.3,1.041.448,37.576,18.911,61.817,54.99,58.272,98.616-2.2,27.27-14.046,47.324-30.714,63.468" transform="translate(-97.279 -1305.537)"/></svg>